<?xml version="1.0" standalone="no"?>
<!DOCTYPE svg PUBLIC "-//W3C//DTD SVG 20010904//EN"
 "http://www.w3.org/TR/2001/REC-SVG-20010904/DTD/svg10.dtd">
<svg version="1.0" xmlns="http://www.w3.org/2000/svg"
 width="400.000000pt" height="400.000000pt" viewBox="0 0 400.000000 400.000000"
 preserveAspectRatio="xMidYMid meet">
<metadata>
Created by potrace 1.14, written by Peter Selinger 2001-2017
</metadata>
<g transform="translate(0.000000,400.000000) scale(0.100000,-0.100000)"
fill="#000000" stroke="none">
<path d="M0 3545 c0 -395 2 -455 15 -455 8 0 17 -11 21 -25 5 -19 13 -25 35
-25 21 0 29 5 29 18 0 9 4 24 10 32 7 12 13 12 33 1 28 -15 47 -8 47 18 0 10
11 28 25 41 21 20 28 22 50 12 68 -31 97 8 43 57 -40 37 -51 38 -76 6 -11 -14
-25 -25 -31 -25 -16 0 -14 8 9 37 11 14 20 34 20 44 0 16 3 17 19 7 17 -10 23
-8 41 14 12 16 27 25 35 21 16 -5 21 12 6 21 -4 3 -6 16 -4 30 5 23 4 24 -42
13 -36 -8 -52 -18 -66 -41 -16 -26 -19 -28 -25 -12 -4 10 -2 21 4 25 5 3 12
17 13 31 4 22 8 25 42 23 26 -2 37 2 37 12 0 7 7 21 16 30 9 8 14 22 11 29 -7
17 20 56 38 56 8 0 19 9 25 20 12 23 38 26 46 6 3 -8 1 -24 -5 -35 -14 -25 3
-38 25 -20 13 10 17 10 24 -1 6 -10 11 -8 21 9 13 20 69 31 69 14 0 -5 11 -13
25 -20 32 -14 42 0 21 32 -40 62 4 135 55 90 23 -22 66 -10 73 21 4 13 11 24
16 24 6 0 10 6 10 13 0 6 9 23 20 37 11 14 20 33 20 42 0 10 11 20 26 24 33 9
57 -15 57 -56 0 -31 1 -31 44 -24 24 3 49 2 56 -4 6 -5 33 -13 59 -16 38 -6
50 -4 65 11 10 10 40 27 67 37 34 13 45 21 37 29 -18 18 -13 37 14 49 14 6 25
17 25 24 0 14 70 44 103 44 34 0 67 28 67 56 0 13 4 24 8 24 5 0 17 7 28 15
17 13 -68 14 -718 15 l-738 0 0 -455z m700 200 c0 -8 -4 -15 -10 -15 -5 0 -10
7 -10 15 0 8 5 15 10 15 6 0 10 -7 10 -15z"/>
<path d="M1786 3990 c7 -7 19 -7 35 -1 23 9 22 10 -10 10 -24 1 -32 -2 -25 -9z"/>
<path d="M1922 3963 c-17 -27 -20 -38 -11 -44 18 -11 35 -1 48 28 8 18 16 23
29 18 45 -19 52 -18 52 8 0 22 -4 24 -47 25 -44 1 -50 -2 -71 -35z"/>
<path d="M2096 3978 c8 -29 22 -38 54 -38 27 1 70 31 70 49 0 7 -25 11 -66 11
-63 0 -65 -1 -58 -22z"/>
<path d="M2315 3990 c3 -5 17 -10 30 -10 19 0 28 -9 39 -35 17 -41 28 -43 49
-12 l16 22 20 -25 c16 -20 29 -25 73 -26 29 -1 59 3 65 8 7 6 26 8 41 6 16 -2
34 2 41 9 19 21 30 15 39 -19 7 -28 13 -33 43 -35 19 -1 54 5 77 14 55 19 77
6 45 -29 -11 -13 -23 -28 -26 -34 -7 -12 35 -64 52 -64 13 0 25 -44 18 -70 -7
-27 55 -40 82 -16 25 23 68 20 81 -4 6 -11 17 -20 25 -20 17 0 39 -36 30 -50
-9 -15 12 -12 46 6 38 19 54 8 81 -53 13 -29 25 -43 38 -43 28 0 60 -39 60
-73 0 -26 2 -29 26 -23 14 4 35 16 47 26 11 11 31 20 43 20 14 0 34 15 54 40
29 36 57 50 72 34 9 -9 -15 -64 -29 -64 -7 0 -18 -10 -24 -22 -10 -18 -8 -24
11 -40 27 -22 41 -19 57 12 11 22 12 21 20 -20 7 -34 15 -46 43 -61 44 -24 64
-61 55 -105 -3 -19 -10 -34 -15 -34 -13 0 -13 -34 1 -63 10 -22 15 -24 48 -16
22 5 37 4 39 -2 2 -5 8 -7 12 -4 5 3 7 -16 5 -41 -3 -30 1 -54 11 -69 8 -12
13 -37 12 -56 -3 -28 1 -35 18 -37 24 -3 63 43 42 50 -17 6 0 28 21 28 10 0
25 8 34 18 15 17 17 66 17 505 l0 487 -846 0 c-561 0 -843 -3 -839 -10z m811
-100 c18 -7 24 -14 17 -21 -12 -12 -63 5 -63 21 0 13 12 13 46 0z m602 -349
c2 -13 -1 -28 -7 -34 -13 -13 -41 15 -41 43 0 31 44 24 48 -9z"/>
<path d="M2017 3674 c-2 -2 -17 -4 -35 -6 -18 -1 -32 -6 -32 -11 0 -4 -5 -5
-11 -2 -16 10 -49 -25 -49 -52 0 -16 -6 -23 -18 -23 -11 0 -29 -9 -42 -20 -13
-11 -26 -20 -30 -20 -4 0 -15 9 -25 20 -10 11 -29 20 -42 20 -29 0 -94 -44
-119 -81 -10 -16 -24 -25 -34 -22 -18 5 -90 -53 -90 -72 0 -24 -47 -62 -85
-69 -49 -10 -126 -46 -120 -56 3 -5 -11 -21 -30 -36 -37 -28 -65 -71 -65 -99
0 -10 -13 -29 -29 -44 -31 -29 -34 -71 -5 -71 8 0 14 -4 14 -10 0 -5 7 -6 17
-3 11 4 14 3 9 -5 -4 -7 -17 -12 -29 -13 -15 0 -17 -2 -7 -6 39 -16 49 -48 30
-97 -6 -16 -6 -26 0 -26 5 0 7 -9 4 -20 -2 -11 -6 -30 -9 -42 -2 -12 0 -27 6
-35 6 -7 9 -22 6 -32 -3 -11 1 -29 9 -39 9 -13 15 -62 19 -142 2 -67 7 -125
10 -131 4 -5 -3 -9 -13 -9 -32 0 -45 -25 -38 -77 3 -26 7 -70 7 -98 1 -47 35
-230 46 -248 3 -4 12 -2 21 5 14 10 15 10 5 -2 -18 -20 -16 -32 10 -71 24 -36
42 -89 52 -151 15 -97 86 -264 133 -315 88 -94 92 -100 92 -163 0 -32 4 -70 9
-84 15 -39 134 -156 158 -156 13 0 24 -8 28 -20 4 -11 11 -18 16 -15 5 4 9 1
9 -4 0 -6 9 -11 21 -11 11 0 17 5 14 10 -3 6 -1 10 5 10 6 0 8 5 5 10 -3 6 1
13 10 16 9 4 14 12 11 20 -10 25 68 22 144 -8 19 -7 38 -17 41 -22 4 -5 21 -7
37 -4 19 3 29 0 25 -5 -4 -6 6 -8 26 -4 21 4 48 0 81 -13 47 -19 86 -18 74 1
-3 5 4 9 15 9 11 0 26 6 33 12 7 7 20 14 28 16 26 6 61 33 55 42 -3 6 0 7 8 4
30 -11 205 114 232 166 8 15 13 29 11 31 -2 2 3 11 12 19 14 13 15 12 9 -3 -3
-9 -2 -17 4 -17 6 0 7 -5 4 -10 -3 -6 1 -17 9 -26 9 -8 16 -31 16 -50 0 -19 7
-49 16 -66 14 -27 14 -37 -1 -107 -18 -82 -82 -242 -156 -388 -26 -51 -43 -90
-38 -87 5 3 9 4 9 2 0 -4 -40 -109 -115 -297 -31 -80 -67 -173 -80 -208 l-24
-63 844 0 845 0 0 334 c0 310 -1 335 -17 340 -10 3 -88 25 -173 50 -243 70
-510 152 -565 174 -220 88 -351 187 -439 332 -40 66 -62 90 -95 109 -30 17
-45 20 -50 12 -12 -18 -41 55 -41 102 1 68 18 170 45 264 15 48 29 113 33 143
6 45 11 54 25 52 54 -9 133 51 164 126 41 99 59 342 28 389 -17 26 -71 32 -94
11 -11 -11 -12 -8 -7 17 9 46 27 284 25 340 0 28 2 74 6 103 5 33 2 82 -6 128
-12 69 -17 79 -59 118 -34 32 -50 57 -64 102 -23 75 -66 164 -78 164 -5 0 -7
4 -4 9 3 5 -5 11 -17 15 -13 3 -42 24 -65 47 -34 33 -45 39 -56 29 -11 -9 -17
-7 -25 7 -9 16 -10 16 -11 -6 0 -19 -3 -21 -15 -11 -8 6 -19 9 -24 6 -5 -4
-26 11 -46 33 -23 25 -52 43 -81 51 -34 10 -42 16 -33 26 8 9 5 16 -13 25 -13
7 -25 15 -28 19 -9 13 -98 18 -110 6 -7 -7 -13 -7 -18 -1 -6 9 -67 16 -75 9z
m-780 -499 c-12 -25 -27 -33 -27 -14 0 6 5 19 11 30 15 28 29 14 16 -16z m516
-339 c30 -18 35 -25 22 -30 -37 -14 -74 6 -75 42 0 17 9 15 53 -12z m-54 -40
c16 -19 74 -27 221 -29 129 -2 155 -8 146 -34 -13 -34 7 -30 45 9 22 22 43 38
46 34 4 -4 6 -22 5 -41 -2 -32 -1 -34 28 -33 31 1 70 -26 70 -48 0 -7 10 -14
23 -16 15 -2 21 -9 19 -20 -2 -10 3 -18 10 -19 30 -1 -31 -18 -69 -18 -23 -1
-44 -5 -48 -10 -3 -5 -35 -13 -71 -16 -47 -6 -73 -14 -94 -31 -20 -17 -30 -21
-33 -12 -3 8 -6 6 -6 -4 -1 -10 -1 -21 -2 -25 0 -5 -21 -45 -46 -91 -25 -46
-43 -86 -39 -89 9 -9 -13 -43 -28 -43 -9 0 -13 13 -12 39 1 39 -38 111 -76
139 -10 7 -18 23 -18 35 0 46 -63 80 -155 82 -38 1 -94 6 -122 10 -51 7 -53 8
-54 38 -3 68 -1 93 16 145 6 18 15 22 51 22 41 0 151 24 162 35 9 9 19 6 31
-9z m624 -313 c-2 -7 4 -10 12 -7 11 5 13 2 9 -10 -5 -14 -18 -16 -73 -12 -36
3 -72 5 -80 6 -20 0 -6 12 32 26 41 15 103 13 100 -3z m-721 -21 c14 -14 -113
-44 -152 -37 -38 7 -53 15 -26 15 9 0 15 4 12 9 -16 25 142 37 166 13z m653
-32 c18 -8 17 -9 -7 -9 -15 -1 -30 4 -33 9 -7 12 12 12 40 0z m-832 -17 c-7
-2 -21 -2 -30 0 -10 3 -4 5 12 5 17 0 24 -2 18 -5z m184 1 c-3 -3 -12 -4 -19
-1 -8 3 -5 6 6 6 11 1 17 -2 13 -5z m461 -64 c-26 -36 -37 -38 -31 -6 3 15 13
27 27 29 11 2 22 5 24 6 1 0 -7 -12 -20 -29z m119 4 c12 -26 12 -26 -19 -20
-17 3 -37 6 -44 6 -21 0 -17 16 9 28 33 16 41 14 54 -14z m-397 -25 c0 -16
-46 -38 -68 -33 -28 8 -19 24 14 24 21 0 23 3 14 19 -15 30 -12 33 15 15 14
-9 25 -20 25 -25z m-230 -16 c0 -3 -7 -3 -17 -1 -9 2 -18 14 -20 27 l-3 25 20
-24 c11 -13 20 -25 20 -27z m148 35 c-5 -15 -48 -24 -48 -10 0 14 12 22 33 22
10 0 17 -5 15 -12z m402 -28 c0 -5 -12 -10 -26 -10 -14 0 -23 4 -19 10 3 6 15
10 26 10 10 0 19 -4 19 -10z m-358 -73 c-6 -7 -18 -46 -27 -85 -8 -40 -21 -88
-29 -107 -15 -34 -14 -36 14 -68 27 -32 28 -34 9 -45 -10 -7 -30 -12 -44 -12
-15 0 -25 -6 -25 -15 0 -8 -16 -21 -35 -29 -19 -9 -39 -25 -45 -38 -8 -20 -9
-20 -9 -4 -1 11 9 30 21 43 28 30 18 39 -22 18 -38 -20 -55 -58 -38 -88 l12
-22 6 25 c5 20 8 15 11 -23 2 -26 0 -52 -4 -56 -5 -5 2 -16 16 -26 15 -10 24
-22 20 -31 -3 -8 3 -17 13 -21 10 -4 19 -2 22 5 7 23 27 11 49 -28 12 -22 18
-40 14 -40 -4 0 -6 -13 -3 -29 4 -27 1 -31 -37 -41 -47 -12 -121 4 -121 27 0
7 -4 13 -10 13 -5 0 -10 7 -10 15 0 8 -4 23 -9 33 -43 85 -65 192 -41 207 11
7 2 83 -12 102 -10 12 -30 182 -23 194 3 3 21 10 40 13 21 4 53 23 78 46 38
36 47 40 94 40 28 0 53 3 55 8 4 9 72 41 77 36 2 -2 -1 -10 -7 -17z m390 -3
c97 -40 142 -66 186 -106 55 -50 60 -63 55 -138 -6 -87 -4 -113 6 -119 18 -13
35 -128 19 -137 -4 -3 -4 -12 -1 -21 4 -10 2 -14 -4 -10 -6 4 -13 -4 -15 -18
-3 -13 0 -26 5 -28 6 -2 2 -12 -9 -23 -10 -10 -18 -27 -16 -36 3 -16 1 -16
-29 -1 -19 9 -28 18 -21 21 10 3 10 7 2 17 -7 9 -9 23 -4 37 4 13 7 30 5 40
-1 9 3 19 9 23 5 3 10 24 10 46 0 32 -7 47 -30 71 -16 16 -30 37 -30 46 0 9
-41 59 -90 111 l-89 93 2 52 c2 59 -2 76 -23 93 -23 19 -7 15 62 -13z m-916
-83 c-4 -5 0 -11 6 -14 7 -2 9 -8 5 -13 -9 -10 -28 16 -21 28 3 4 7 8 10 8 3
0 3 -4 0 -9z m1574 -17 c0 -2 -7 -4 -15 -4 -8 0 -15 4 -15 10 0 5 7 7 15 4 8
-4 15 -8 15 -10z m-916 -59 c3 -8 12 -15 19 -15 8 0 20 -6 26 -13 8 -11 5 -19
-13 -36 l-25 -23 -40 23 c-42 23 -52 39 -26 39 8 0 15 6 15 14 0 13 13 23 31
25 4 1 9 -6 13 -14z m376 -165 c0 -13 -11 -13 -30 0 -12 8 -11 10 8 10 12 0
22 -4 22 -10z m-323 -64 c18 3 41 3 50 -1 33 -13 -15 -24 -110 -24 -74 -1 -86
1 -75 12 20 21 40 25 73 15 16 -4 44 -5 62 -2z m123 -81 c0 -17 16 -20 25 -5
9 15 25 12 25 -5 0 -8 -5 -26 -12 -40 -8 -19 -14 -22 -20 -13 -6 11 -10 10
-17 0 -4 -8 -17 -13 -27 -12 -11 1 -21 1 -24 0 -34 -13 -259 -24 -241 -11 12
8 13 14 3 36 -10 22 -9 27 6 32 9 4 20 11 23 16 4 5 12 6 19 2 18 -11 204 -4
217 9 11 11 23 6 23 -9z m-120 -104 c0 -12 -35 -20 -51 -11 -11 8 -7 9 44 19
4 0 7 -3 7 -8z m53 2 c-7 -2 -19 -2 -25 0 -7 3 -2 5 12 5 14 0 19 -2 13 -5z
m-28 -66 c54 -13 57 -15 32 -22 -15 -4 -41 -5 -57 -3 -17 3 -30 1 -30 -4 0 -4
-21 -8 -47 -8 -43 0 -45 1 -27 14 10 8 15 18 11 22 -4 4 5 13 20 19 16 7 30 9
33 5 3 -4 32 -14 65 -23z m335 23 c0 -5 -2 -10 -4 -10 -3 0 -8 5 -11 10 -3 6
-1 10 4 10 6 0 11 -4 11 -10z m-660 -130 c0 -5 -4 -10 -10 -10 -5 0 -10 5 -10
10 0 6 5 10 10 10 6 0 10 -4 10 -10z m430 -16 c0 -8 -4 -12 -10 -9 -5 3 -10
10 -10 16 0 5 5 9 10 9 6 0 10 -7 10 -16z m-223 -16 c-1 -14 4 -23 15 -26 13
-2 16 1 12 12 -4 10 -1 16 9 16 16 0 27 -20 28 -53 0 -21 1 -21 10 2 5 13 7
33 3 43 -5 17 -3 18 13 10 10 -5 25 -7 33 -5 13 4 13 3 0 -6 -16 -12 -16 -12
17 -16 12 -1 24 4 27 12 5 11 10 11 31 -3 14 -9 25 -13 25 -8 0 4 3 5 6 1 3
-3 -4 -15 -15 -26 -12 -12 -21 -18 -21 -13 0 4 -5 0 -10 -8 -7 -11 -10 -11
-10 -2 0 7 -4 11 -9 8 -5 -4 -12 0 -14 6 -3 8 -6 6 -6 -4 -1 -10 -8 -18 -17
-18 -10 0 -14 6 -10 15 4 10 -1 15 -15 15 -34 0 -19 -34 16 -38 35 -4 59 -22
30 -22 -11 0 -30 -3 -42 -6 -16 -4 -23 0 -28 16 -5 17 -9 19 -15 9 -5 -7 -21
-14 -37 -17 -15 -2 -31 -9 -35 -15 -5 -8 -8 -6 -8 6 0 9 7 17 15 17 18 0 19
12 3 28 -9 9 -9 12 3 12 9 1 7 7 -8 19 -26 22 -28 27 -10 46 16 19 17 19 14
-7z m383 -443 c14 -8 21 -14 15 -14 -5 0 -21 6 -35 14 -14 8 -20 14 -15 14 6
0 21 -6 35 -14z"/>
<path d="M2268 2623 c7 -3 16 -2 19 1 4 3 -2 6 -13 5 -11 0 -14 -3 -6 -6z"/>
<path d="M1626 1572 c-3 -6 -1 -14 5 -17 15 -10 25 3 12 16 -7 7 -13 7 -17 1z"/>
<path d="M2290 1916 c0 -4 7 -14 15 -22 8 -9 15 -11 15 -6 0 5 -7 15 -15 22
-8 7 -15 9 -15 6z"/>
<path d="M812 3595 c-17 -36 -15 -45 8 -45 15 0 20 7 20 25 0 14 0 28 1 32 2
19 -19 11 -29 -12z"/>
<path d="M720 3439 c0 -14 5 -19 17 -17 26 5 29 38 4 38 -15 0 -21 -6 -21 -21z"/>
<path d="M1 2994 c0 -11 3 -14 6 -6 3 7 2 16 -1 19 -3 4 -6 -2 -5 -13z"/>
<path d="M3960 2892 c0 -11 9 -27 20 -37 20 -18 20 -17 20 12 0 19 -6 33 -16
37 -23 9 -24 8 -24 -12z"/>
<path d="M0 2778 c0 -21 5 -38 10 -38 13 0 13 40 0 60 -7 11 -10 5 -10 -22z"/>
<path d="M1480 1198 c-77 -94 -104 -118 -193 -171 -118 -70 -177 -92 -418
-156 -442 -118 -652 -182 -733 -225 -63 -33 -95 -71 -121 -145 -12 -34 -15
-92 -15 -272 l0 -229 663 2 662 3 15 246 c13 210 18 250 33 267 16 17 17 32
11 133 -4 73 -2 124 5 142 15 40 31 33 24 -10 -4 -30 -3 -35 7 -27 6 7 14 40
17 75 4 44 13 73 29 94 12 17 27 57 33 90 23 136 31 209 23 217 -4 4 -23 -11
-42 -34z m-64 -328 c-3 -40 -16 -51 -16 -13 0 25 6 43 16 43 1 0 1 -13 0 -30z"/>
<path d="M1861 761 c-35 -35 -48 -74 -55 -166 -3 -49 -9 -103 -12 -120 l-7
-30 20 22 c24 27 33 21 33 -21 1 -26 2 -28 11 -13 5 9 8 21 4 26 -11 18 16 23
35 6 26 -23 32 -67 11 -85 -53 -48 -55 -48 -48 -7 6 39 -9 53 -17 15 -16 -83
-38 -164 -52 -196 -26 -56 -27 -59 -10 -37 28 37 61 78 90 113 29 33 30 34 38
12 5 -13 4 -28 -1 -34 -12 -15 15 -116 31 -116 6 0 8 -3 5 -7 -4 -3 -2 -12 5
-20 8 -10 6 -19 -11 -37 -36 -38 -21 -66 33 -66 l43 0 7 70 c4 38 9 143 12
233 2 90 9 188 14 217 6 29 10 54 10 57 0 2 -10 1 -22 -2 -13 -3 -40 -7 -61
-9 -20 -3 -53 -10 -73 -16 -19 -7 -37 -10 -39 -8 -10 9 -9 132 1 135 6 2 9 14
7 26 -5 24 29 71 42 59 5 -4 5 -1 1 6 -10 17 -23 15 -45 -7z"/>
<path d="M2056 751 c-11 -4 -15 -10 -10 -14 14 -8 55 3 48 14 -6 10 -12 10
-38 0z"/>
<path d="M2080 704 c-9 -22 -7 -30 14 -49 25 -23 25 -23 32 -3 6 21 -13 78
-27 78 -5 0 -14 -12 -19 -26z"/>
<path d="M1721 88 c-28 -38 -37 -58 -27 -58 2 0 15 17 27 37 13 21 27 44 32
51 20 30 -4 8 -32 -30z"/>
</g>
</svg>
